<?xml version="1.0" encoding="UTF-8"?>
<svg width="32" height="32" viewBox="0 0 32 32" xmlns="http://www.w3.org/2000/svg">
  <defs>
    <linearGradient id="faviconGradient" x1="0%" y1="0%" x2="100%" y2="100%">
      <stop offset="0%" style="stop-color:#007bff;stop-opacity:1" />
      <stop offset="100%" style="stop-color:#0056b3;stop-opacity:1" />
    </linearGradient>
  </defs>
  
  <!-- 背景 -->
  <rect width="32" height="32" rx="6" fill="url(#faviconGradient)"/>
  
  <!-- 游戏手柄主体 -->
  <g transform="translate(16, 16)">
    <!-- 手柄中央主体 -->
    <rect x="-8" y="-2.5" width="16" height="5" rx="2.5" fill="white"/>
    
    <!-- 左侧握把 -->
    <ellipse cx="-8" cy="1" rx="2.5" ry="4" fill="white"/>
    
    <!-- 右侧握把 -->
    <ellipse cx="8" cy="1" rx="2.5" ry="4" fill="white"/>
    
    <!-- 左侧摇杆 -->
    <circle cx="-5" cy="0" r="1.8" fill="none" stroke="#007bff" stroke-width="0.8"/>
    <circle cx="-5" cy="0" r="0.8" fill="#007bff"/>
    
    <!-- 方向键 (十字键) -->
    <g transform="translate(-5, 0)">
      <rect x="-0.6" y="-2" width="1.2" height="4" rx="0.6" fill="#007bff"/>
      <rect x="-2" y="-0.6" width="4" height="1.2" rx="0.6" fill="#007bff"/>
    </g>
    
    <!-- 右侧按钮 (ABXY彩色) -->
    <circle cx="3" cy="-1.5" r="0.8" fill="#28a745"/> <!-- Y 绿色 -->
    <circle cx="5.5" cy="0" r="0.8" fill="#007bff"/>  <!-- X 蓝色 -->
    <circle cx="3" cy="1.5" r="0.8" fill="#dc3545"/>  <!-- A 红色 -->
    <circle cx="0.5" cy="0" r="0.8" fill="#ffc107"/>  <!-- B 黄色 -->
    
    <!-- 肩部按键 -->
    <rect x="-6" y="-4" width="2.5" height="1.2" rx="0.6" fill="white" opacity="0.9"/>
    <rect x="3.5" y="-4" width="2.5" height="1.2" rx="0.6" fill="white" opacity="0.9"/>
    
    <!-- 中央按钮 -->
    <circle cx="-1.5" cy="0" r="0.5" fill="white" opacity="0.8"/>
    <circle cx="1.5" cy="0" r="0.5" fill="white" opacity="0.8"/>
  </g>
</svg> 